<?xml version="1.0" encoding="iso-8859-1"?>
<!-- Generator: Adobe Illustrator 19.0.0, SVG Export Plug-In . SVG Version: 6.00 Build 0)  -->
<svg version="1.1" id="Capa_1" xmlns="http://www.w3.org/2000/svg" xmlns:xlink="http://www.w3.org/1999/xlink" x="0px" y="0px"
	 viewBox="0 0 512 512" style="enable-background:new 0 0 512 512;" xml:space="preserve">
<polygon style="fill:#CDD6E0;" points="275.2,106.667 313.6,22.4 298.667,16 257.067,106.667 "/>
<circle style="fill:#FF7058;" cx="306.133" cy="19.2" r="19.2"/>
<polygon style="fill:#CDD6E0;" points="224,106.667 185.6,22.4 200.533,16 242.133,106.667 "/>
<circle style="fill:#FF7058;" cx="193.067" cy="19.2" r="19.2"/>
<path style="fill:#ACB3BA;" d="M293.333,106.667c-2.133-10.667-11.733-19.2-22.4-19.2H224c-11.733,0-20.267,8.533-22.4,19.2H293.333
	z"/>
<path style="fill:#334A5E;" d="M457.6,512H54.4c-6.4,0-10.667-4.267-10.667-10.667V489.6h425.6v11.733
	C468.267,507.733,464,512,457.6,512z"/>
<path style="fill:#40596B;" d="M0,468.267V128c0-11.733,9.6-21.333,21.333-21.333h469.333c11.733,0,21.333,9.6,21.333,21.333
	v340.267c0,11.733-9.6,21.333-21.333,21.333H21.333C9.6,489.6,0,480,0,468.267z"/>
<path style="fill:#54C0EB;" d="M403.2,165.333v265.6c0,11.733-9.6,21.333-21.333,21.333h-323.2c-5.333,0-10.667-2.133-14.933-6.4
	s-6.4-9.6-6.4-14.933v-265.6c0-6.4,2.133-11.733,6.4-14.933c2.133-2.133,5.333-4.267,8.533-5.333C54.4,144,56.533,144,58.667,144
	h323.2c5.333,0,10.667,2.133,14.933,6.4C400,153.6,403.2,158.933,403.2,165.333z"/>
<g>
	<rect x="418.133" y="266.667" style="fill:#334A5E;" width="77.867" height="24.533"/>
	<rect x="418.133" y="218.667" style="fill:#334A5E;" width="77.867" height="24.533"/>
	<rect x="418.133" y="171.733" style="fill:#334A5E;" width="77.867" height="24.533"/>
</g>
<g>
	<circle style="fill:#ACB3BA;" cx="457.6" cy="410.667" r="20.267"/>
	<circle style="fill:#ACB3BA;" cx="457.6" cy="340.267" r="20.267"/>
</g>
<g>
	<polygon style="fill:#84DBFF;" points="295.467,144 124.8,452.267 210.133,452.267 380.8,144 	"/>
	<polygon style="fill:#84DBFF;" points="230.4,144 58.667,452.267 86.4,452.267 258.133,144 	"/>
</g>
<g>
</g>
<g>
</g>
<g>
</g>
<g>
</g>
<g>
</g>
<g>
</g>
<g>
</g>
<g>
</g>
<g>
</g>
<g>
</g>
<g>
</g>
<g>
</g>
<g>
</g>
<g>
</g>
<g>
</g>
</svg>
